<?xml version="1.0" encoding="UTF-8"?>
<!-- Generated by Pixelmator Pro 3.7.1 -->
<svg width="1024" height="1024" viewBox="0 0 1024 1024" xmlns="http://www.w3.org/2000/svg">
    <g id="Group">
        <filter id="filter1" x="0" y="0" width="1024" height="1024" filterUnits="userSpaceOnUse" primitiveUnits="userSpaceOnUse" color-interpolation-filters="sRGB">
            <feGaussianBlur stdDeviation="5.427861"/>
            <feOffset dx="-0" dy="11.941294" result="offsetblur"/>
            <feFlood flood-color="#000000" flood-opacity="0.367097"/>
            <feComposite in2="offsetblur" operator="in"/>
            <feMerge>
                <feMergeNode/>
                <feMergeNode in="SourceGraphic"/>
            </feMerge>
        </filter>
        <path id="Path" fill="#ffffff" fill-rule="evenodd" stroke="none" filter="url(#filter1)" d="M 0.562655 859.999634 C 0.597312 944.615173 82.096214 1013.176208 182.595535 1013.135071 L 842.237305 1012.864868 C 942.736572 1012.82373 1024.179321 944.195923 1024.144653 859.580383 L 1023.855286 153.000366 C 1023.820618 68.384888 942.321655 -0.17627 841.822388 -0.13501 L 182.180618 0.135132 C 81.681305 0.17627 0.238594 68.804138 0.273252 153.419617 Z"/>
        <g id="g1">
            <path id="Rounded-Rectangle-copy-7" fill="#e9725a" fill-rule="evenodd" stroke="#e9725a" stroke-width="2.171144" stroke-linecap="round" stroke-linejoin="round" d="M 571.398804 335.122498 C 571.401855 342.637695 578.640259 348.72699 587.566162 348.723328 L 886.859131 348.600769 C 895.785095 348.597107 903.018494 342.501892 903.015442 334.986694 C 903.012329 327.471497 895.773926 321.382202 886.848022 321.385864 L 587.555054 321.508423 C 578.629089 321.512085 571.395691 327.6073 571.398804 335.122498 Z"/>
            <path id="Rounded-Rectangle-copy-8" fill="#e9725a" fill-rule="evenodd" stroke="#e9725a" stroke-width="2.171144" stroke-linecap="round" stroke-linejoin="round" d="M 571.428894 408.703613 C 571.432007 416.218811 578.67041 422.308105 587.596313 422.304443 L 886.889282 422.181824 C 895.815247 422.178223 903.048645 416.082947 903.045532 408.567749 C 903.04248 401.052551 895.804077 394.963257 886.878113 394.966919 L 587.585144 395.089539 C 578.659241 395.093201 571.425842 401.188416 571.428894 408.703613 Z"/>
            <path id="Rounded-Rectangle-copy-9" fill="#e9725a" fill-rule="evenodd" stroke="#e9725a" stroke-width="2.171144" stroke-linecap="round" stroke-linejoin="round" d="M 571.459045 482.284668 C 571.462158 489.799866 578.7005 495.88916 587.626465 495.885498 L 886.919434 495.762939 C 895.845398 495.759277 903.078796 489.664063 903.075684 482.148865 C 903.072632 474.633667 895.834229 468.544373 886.908264 468.548035 L 587.615295 468.670593 C 578.689392 468.674255 571.455994 474.76947 571.459045 482.284668 Z"/>
            <path id="Rounded-Rectangle-copy-10" fill="#e9725a" fill-rule="evenodd" stroke="#e9725a" stroke-width="2.171144" stroke-linecap="round" stroke-linejoin="round" d="M 571.489197 555.865784 C 571.492249 563.380981 578.730652 569.470276 587.656616 569.466614 L 886.949585 569.343994 C 895.875488 569.340332 903.108887 563.245117 903.105835 555.72998 C 903.102722 548.214722 895.86438 542.125488 886.938416 542.12915 L 587.645447 542.251709 C 578.719543 542.255371 571.486145 548.350586 571.489197 555.865784 Z"/>
            <path id="Rounded-Rectangle-copy-11" fill="#e9725a" fill-rule="evenodd" stroke="#e9725a" stroke-width="2.171144" stroke-linecap="round" stroke-linejoin="round" d="M 571.519348 629.446899 C 571.5224 636.962036 578.760803 643.051392 587.686707 643.047729 L 886.979675 642.92511 C 895.90564 642.921448 903.139038 636.826233 903.135986 629.311035 C 903.132874 621.795837 895.89447 615.706543 886.968567 615.710205 L 587.675598 615.832764 C 578.749634 615.836426 571.516235 621.931641 571.519348 629.446899 Z"/>
            <path id="Rounded-Rectangle-copy-12" fill="#e9725a" fill-rule="evenodd" stroke="#e9725a" stroke-width="2.171144" stroke-linecap="round" stroke-linejoin="round" d="M 571.5495 703.027954 C 571.552551 710.543152 578.790955 716.632446 587.716858 716.628784 L 782.855896 716.548828 C 791.781799 716.545166 799.015198 710.449951 799.012146 702.934814 C 799.009094 695.419556 791.770691 689.330322 782.844727 689.333984 L 587.705688 689.413879 C 578.779785 689.41748 571.546387 695.512756 571.5495 703.027954 Z"/>
        </g>
        <g id="g2">
            <path id="path1" fill="#3c77c5" fill-rule="evenodd" stroke="#3c77c5" stroke-width="4.342288" stroke-linecap="round" stroke-linejoin="round" d="M 118.837654 261.726746 C 118.840729 269.241943 126.079124 275.331238 135.005051 275.327637 L 351.693176 275.238831 C 360.61911 275.235229 367.852509 269.139954 367.849426 261.624756 C 367.846344 254.109558 360.607941 248.020264 351.682037 248.023926 L 134.993896 248.112671 C 126.06797 248.116333 118.834572 254.211548 118.837654 261.726746 Z"/>
            <path id="Rounded-Rectangle-copy-6" fill="#3c77c5" fill-rule="evenodd" stroke="#3c77c5" stroke-width="4.342288" stroke-linecap="round" stroke-linejoin="round" d="M 119.018478 703.213257 C 119.021561 710.728516 126.259949 716.81781 135.185867 716.814148 L 330.32489 716.734253 C 339.250824 716.730591 346.484222 710.635315 346.48114 703.120117 C 346.478088 695.60498 339.239685 689.515625 330.313751 689.519287 L 135.174728 689.599243 C 126.248802 689.602905 119.015404 695.69812 119.018478 703.213257 Z"/>
            <path id="Rounded-Rectangle-copy" fill="#3c77c5" fill-rule="evenodd" stroke="#3c77c5" stroke-width="4.342288" stroke-linecap="round" stroke-linejoin="round" d="M 118.86779 335.307861 C 118.870872 342.823059 126.109261 348.912354 135.035187 348.908691 L 434.328156 348.786133 C 443.254089 348.782471 450.487518 342.687256 450.484436 335.172058 C 450.481354 327.65686 443.24295 321.567505 434.317017 321.571167 L 135.024033 321.693787 C 126.098114 321.697449 118.864716 327.792664 118.86779 335.307861 Z"/>
            <path id="Rounded-Rectangle-copy-2" fill="#3c77c5" fill-rule="evenodd" stroke="#3c77c5" stroke-width="4.342288" stroke-linecap="round" stroke-linejoin="round" d="M 118.897926 408.888916 C 118.901009 416.404114 126.139397 422.493469 135.065323 422.489807 L 434.358307 422.367188 C 443.284241 422.363525 450.517639 416.268311 450.514557 408.753113 C 450.511475 401.237915 443.273102 395.148621 434.347137 395.152283 L 135.054184 395.274841 C 126.12825 395.278503 118.894852 401.373779 118.897926 408.888916 Z"/>
            <path id="Rounded-Rectangle-copy-3" fill="#3c77c5" fill-rule="evenodd" stroke="#3c77c5" stroke-width="4.342288" stroke-linecap="round" stroke-linejoin="round" d="M 118.92807 482.470032 C 118.931145 489.985229 126.169533 496.074524 135.095459 496.070862 L 434.388428 495.948303 C 443.314392 495.944641 450.547791 489.849426 450.544708 482.334229 C 450.541626 474.819031 443.303223 468.729736 434.377289 468.733398 L 135.08432 468.855957 C 126.158386 468.859619 118.924988 474.954834 118.92807 482.470032 Z"/>
            <path id="Rounded-Rectangle-copy-4" fill="#3c77c5" fill-rule="evenodd" stroke="#3c77c5" stroke-width="4.342288" stroke-linecap="round" stroke-linejoin="round" d="M 118.958206 556.051147 C 118.961281 563.566284 126.199669 569.65564 135.125595 569.651978 L 434.418579 569.529419 C 443.344513 569.525757 450.577911 563.430481 450.574829 555.915283 C 450.571747 548.400146 443.333374 542.310791 434.40741 542.314453 L 135.114456 542.437012 C 126.188522 542.440674 118.955124 548.535889 118.958206 556.051147 Z"/>
            <path id="Rounded-Rectangle-copy-5" fill="#3c77c5" fill-rule="evenodd" stroke="#3c77c5" stroke-width="4.342288" stroke-linecap="round" stroke-linejoin="round" d="M 118.988342 629.632202 C 118.991417 637.1474 126.229805 643.236694 135.155731 643.233032 L 434.4487 643.110474 C 443.374664 643.106812 450.608063 637.011597 450.60498 629.496399 C 450.601898 621.981201 443.363495 615.891846 434.437561 615.895508 L 135.144592 616.018127 C 126.218658 616.02179 118.98526 622.117004 118.988342 629.632202 Z"/>
        </g>
        <path id="Line" fill="none" stroke="#c5cacc" stroke-width="12.507666" stroke-linecap="round" stroke-dasharray="50.030664 62.53833" stroke-dashoffset="0" d="M 513.011169 1004.936035 L 512.6026 -0.000244"/>
        <g id="g3">
            <path id="path2" fill="none" stroke="#c5cacc" stroke-width="12.507666" stroke-linecap="round" d="M 428.163208 805.394653 L 285.467285 805.453125"/>
            <path id="path3" fill="#c5cacc" stroke="none" d="M 405.65863 827.917664 L 450.677002 805.385437 L 405.640198 782.890076 L 413.154022 805.400818 Z"/>
        </g>
        <g id="Line-copy">
            <path id="path4" fill="none" stroke="#c5cacc" stroke-width="12.507666" stroke-linecap="round" d="M 595.064148 223.7332 L 737.760071 223.674744"/>
            <path id="path5" fill="#c5cacc" stroke="none" d="M 617.568726 201.21019 L 572.550354 223.742432 L 617.587158 246.237778 L 610.073364 223.727051 Z"/>
        </g>
    </g>
</svg>
